<?xml version="1.0" encoding="UTF-8"?>
<svg id="Layer_1" data-name="Layer 1" xmlns="http://www.w3.org/2000/svg" viewBox="0 0 101.8 92.22">
  <defs>
    <style>
      .cls-1 {
        fill: none;
      }

      .cls-2 {
        fill: #004583;
      }
    </style>
  </defs>
  <rect class="cls-1" width="101.8" height="90.71"/>
  <g>
    <path class="cls-2" d="m15.63,69.12l3.37,9.01,3.66,9.81h6.93v-3.03h-4.61l-3.22-8.61h0s-3.51-9.37-3.51-9.37c.04-.03.06-.05.06-.05,2.38-2.04,4.4-3.91,5.68-4.92,5.67-4.53,12.39-7.31,18.42-8.16,4.64-.66,8.59-.39,13.28-.58-2.91,3.47-3.43,3.03-7.81,3.61,5.56,4.71,14.62,2.59,17.86-3.73,1.97-.35,4.61-.04,7.48.23,2.23.43,4.51.67,6.7,1.28,1.58.44,3.05.9,4.58,1.52,2.05.39,2.46-.12,1.23-2.22-1.01-1.01-2.01-2.02-3.01-3.03-2.24-5.26-5.72-9.9-13.62-12.36-3.96-1.06-8.46-2.32-13.06-2.56-3.6-.19-6.45-.93-9.6-3.15-6.03-4.25-11.88-5.28-15.29-2.68,2.68.93,4.69,3.18,5.58,6.29-9.78,7.63-17.01,15.2-21.19,22.99-.01.02-.03.06-.05.09l-2.62-7.02h0l-4.65-12.42L50.89,5.47l42.69,34.6-16.77,44.84h-6.34l-.6,3.03h9.26l18.27-48.86L50.89,1.38,4.39,39.07l5.47,14.63h0l3.71,9.91s-.03.09-.03.12c0,.03-.02.05-.03.07-3.11,1.55-5.6,1.4-7.81.47-1,1.36-.37,2.72,1.9,4.08C5.77,71.12,3.31,73.26,0,74.77c3.39,3.1,10-1.12,15.63-5.66h0Zm54.46-28.62c3.32.07,5.81,3.02,6.92,5.95.89.82,3.48,1.53,2.68,2.45-1.41,1.62-4.08,1.06-6.14,1.52-.74.16-1.49.37-2.23.35-.65-.02-1.25-.55-1.9-.47-.66.08-1.57.28-1.79.93-.17.49,1.54.77,1.12,1.05-.92.6-2.21.72-3.23.35-.5-.18-.68-1.21-.34-1.63,1.93-2.34,3.94-2.39,6.14-2.8.92-.17,1.63,1.14,2.56,1.17.82.02,1.97-.08,1.9-.93-.09-1.01-1.3-1.21-2.12-1.75-7.01-.41-14.08-.62-19.87-4.2-1.3-.12-2.61-.23-3.91-.35,3.69-2.47,12.25-1.81,20.2-1.63Zm-21.1,9.32c2.72.27,5.66.19,8.37.47-.37.66-.86,1.44-1.23,2.1-3.81-.56-8.21-.38-13.51,0,2.16-.82,4.2-1.75,6.36-2.57Zm-32.61,11.86c5.65-11.61,14.37-14.16,25.58-18.73.15-.06-5.69,7.81-5.69,7.81-.78.46-1.84.83-2.46,1.51-.66.73-.74,2.45-1.67,2.68-5.57,1.41-10.67,3.75-15.43,7.62-.02.02-.04.03-.06.05l-.31-.83c.02-.07.04-.12.04-.12Z"/>
    <path class="cls-2" d="m47.51,87.84c-1.33-.02-2.66-.03-3.99-.02-.06,0-.1-.05-.11-.11-.01-.23-.02-.46-.02-.68.02-.18.26-.24.37-.37.22-.19.31-.43.26-.73-.04-.24-.09-.75-.14-1-.03-.19-.11-.26-.28-.26-.59-.01-1.18,0-1.76,0-.15,0-.35,0-.38.19-.07.41-.14.96-.18,1.38-.03.25.03.48.26.61.11.07.25.13.25.28.02.28.03.36,0,.62,0,.07-.04.1-.11.1-1.05,0-2.1.04-3.16.02-.68,0-1.36,0-2.04-.02-.14,0-.16-.02-.2-.16-.33-.94-.51-1.92-.83-2.86-.13-.41-.54-.58-.94-.55-.13,0-.19.08-.21.21-.04.48,0,.96,0,1.45,0,.28.11.5.32.67.17.17.45.29.45.57,0,.19,0,.38,0,.57,0,.07-.03.1-.1.11-1.11.05-2.22-.02-3.33-.03-.12-.01-.25,0-.23-.17,0-.26-.01-.52-.01-.78-.04-.31.27-.2.48-.26.21-.04.36-.19.39-.4.06-.58.01-1.18,0-1.76-.04-1.88-.04-3.76-.06-5.64,0-.28-.03-.56-.07-.84-.03-.39-.35-.45-.68-.46-.12-.01-.14-.04-.16-.17-.01-.26,0-.51,0-.77,0-.19.01-.2.19-.2,1.31,0,2.62-.01,3.92.03,1.1-.03,2.02.35,2.47,1.43.77,1.57.59,5.03-1.34,5.64-.29.17-.02.38.2.44.34.14.59.39.74.74.32.73.31,1.47.75,2.14.3.41.92.33,1.11-.11.13-.23.19-.66.24-.92.28-2.05.65-3.94.96-5.99.1-.55.18-1.09.24-1.64s-.27-.55-.43-.56c-.17-.01-.19-.03-.19-.21,0-.29.02-.57.01-.86,0-.08.03-.11.11-.12,1.26-.03,2.33.01,3.59.02.55-.02.75.42.81.9.13.71.26,1.42.4,2.14.34,1.8.66,3.61,1.01,5.41.15.66.18,1.34.55,1.93.36.5,1.17.34,1.3-.28.12-.63.04-1.31.06-1.95,0-1.44,0-2.88,0-4.32,0-.64.01-1.27-.02-1.91,0-.49-.3-.77-.79-.76-.1-.01-.13-.04-.13-.14,0-.3-.01-.6,0-.9,0-.12.04-.15.15-.15.81,0,1.62-.03,2.42-.04,1.26.07,2.76-.26,3.79.66.88.86.93,2.19.97,3.35.02,1.86.15,3.76-.3,5.57-.36,1.55-1.89,1.96-3.31,1.95-1.09.02-2.21,0-3.28.02Zm2.55-5.76c.01,1.43.02,2.89.04,4.33.02.16.08.22.24.22.58.01,1.23.01,1.58-.53.14-.19.19-.42.21-.66.08-.81.11-1.62.09-2.43,0-.92,0-1.84-.03-2.76-.03-.74,0-1.54-.31-2.23-.36-.54-1.08-.53-1.65-.49-.1,0-.16.07-.17.18-.02,1.45.01,2.91,0,4.37Zm-15.82-1.83c.03.81,0,1.65.04,2.47.02.42.58.22.84.16.87-.22.84-1.26.92-2,.03-.51,0-1.02-.03-1.53-.05-.64-.12-1.54-.87-1.73-.24-.05-.91-.2-.89.19,0,.81,0,1.62,0,2.43Zm8.46,3.38c.22-.03.48,0,.72,0,.16,0,.23-.08.21-.25-.26-1.72-.55-3.43-.77-5.16-.04-.13,0-.37-.19-.39-.12-.01-.17.12-.19.22-.32,1.78-.64,3.57-.8,5.38,0,.07.04.12.11.14.3.08.61.03.91.06Zm22.6-7.27c.75,0,1.66.01,2.45.08.5.05,1.03.21,1.34.62.68.91.73,2.13.75,3.22-.02,1.37.06,2.89-.81,4.03-.6.78-1.75,1.15-2.69.84-.18-.05-.52-.27-.55.04-.07.72-.03,1.1.18,1.34.22.25.3.35.99.5.07.02.1.05.11.12,0,.19.02.39.02.58,0,.1-.03.12-.13.13-1.44,0-2.54-.02-3.98-.08-.08,0-.11-.04-.11-.12,0-.3-.01-.6-.01-.89,0-.09.03-.12.11-.13.11-.02.23-.03.34-.04.27-.04.39-.24.42-.46.03-2.5-.06-5-.06-7.49,0-.24-.03-.47-.08-.7-.05-.38-.35-.43-.68-.44-.09,0-.12-.03-.14-.13-.03-.29,0-.58,0-.88,0-.11.02-.13.13-.13.84,0,1.55,0,2.42,0Zm.47,4.5c.05.89.02,1.94.05,2.84-.05.45.53.54.86.44,1.07-.27.8-2.06.88-2.93.01-.64-.02-1.28-.07-1.92-.04-.48-.08-1.02-.41-1.4-.32-.31-.7-.35-1.11-.31-.11.01-.17.09-.19.21-.05,1.02-.01,2.04-.03,3.07Zm-3.64,1.25c-.02,2.92.22,6.16-3.73,5.83-2.96-.05-2.71-3.09-2.82-5.26-.05-1.13-.02-2.27.05-3.39.05-2.03,1.04-3.09,3.11-3.04,3.67-.26,3.35,3.27,3.39,5.87Zm-4.39-.04c0,.92.02,1.85.05,2.78.05.65-.02,1.7.75,1.93.58.12,1.09-.08,1.21-.7.28-1.76.18-3.58.21-5.36-.03-.71-.06-1.42-.1-2.13-.05-.46-.06-1.08-.59-1.25-.46-.16-1.14-.13-1.33.39-.09.22-.13.46-.15.69-.11,1.21-.05,2.43-.06,3.65Z"/>
    <path class="cls-2" d="m44.35,73.06h-.42c-.2,0-.37.14-.42.34-.12.45-.41.56-.87.56s-.71-.12-.83-.56c-.05-.2-.22-.34-.42-.34h-.41c-.26,0-.47.23-.43.49.16,1.06.83,1.72,2.09,1.72s1.97-.66,2.13-1.72c.04-.26-.17-.49-.43-.49Z"/>
  </g>
</svg>